<?xml version="1.0" encoding="utf-8"?>
<!-- Generator: Adobe Illustrator 27.0.0, SVG Export Plug-In . SVG Version: 6.00 Build 0)  -->
<svg version="1.1" id="Layer_1" xmlns="http://www.w3.org/2000/svg" xmlns:xlink="http://www.w3.org/1999/xlink" x="0px" y="0px"
	 viewBox="0 0 24 24" style="enable-background:new 0 0 24 24;" xml:space="preserve">
<style type="text/css">
	.st0{fill:#FFFFFF;}
	.st1{fill:#39B54A;}
	.st2{fill:none;stroke:#FFFFFF;stroke-width:2;stroke-linecap:round;stroke-miterlimit:10;}
</style>
<path class="st0" d="M14.79-10.66l-8.97,5.7c-0.63,0.39-1.43,0.39-2.06,0l-8.97-5.7"/>
<g>
	<path class="st1" d="M20.58,8.64c0.47,0.35,0.75,0.91,0.75,1.49v9.33c0,1.03-0.84,1.87-1.87,1.87H4.53c-1.03,0-1.87-0.84-1.87-1.87
		v-9.33c0-0.59,0.28-1.14,0.75-1.49l7.47-5.6c0.66-0.5,1.58-0.5,2.24,0L20.58,8.64z"/>
	<path class="st2" d="M5.46,10.65c3.61,3.61,9.46,3.61,13.07,0"/>
</g>
</svg>
