<?xml version="1.0" encoding="utf-8"?>
<!-- Generator: Adobe Illustrator 27.0.0, SVG Export Plug-In . SVG Version: 6.00 Build 0)  -->
<svg version="1.1" id="Layer_1" xmlns="http://www.w3.org/2000/svg" xmlns:xlink="http://www.w3.org/1999/xlink" x="0px" y="0px"
	 viewBox="0 0 24 24" style="enable-background:new 0 0 24 24;" xml:space="preserve">
<style type="text/css">
	.st0{fill:#39B54A;}
</style>
<path class="st0" d="M13.64,16.1c0.38,0.18,0.83,0.06,1.09-0.27l0.32-0.42c0.34-0.45,0.87-0.72,1.44-0.72h2.69
	c0.99,0,1.8,0.8,1.8,1.8v2.69c0,0.99-0.8,1.8-1.8,1.8c-8.92,0-16.16-7.23-16.16-16.16c0-0.99,0.8-1.8,1.8-1.8h2.69
	c0.99,0,1.8,0.8,1.8,1.8v2.69c0,0.57-0.27,1.1-0.72,1.44L8.17,9.26c-0.34,0.26-0.45,0.72-0.26,1.11
	C9.13,12.86,11.15,14.88,13.64,16.1"/>
</svg>
