<?xml version="1.0" encoding="utf-8"?>
<!-- Generator: Adobe Illustrator 27.0.0, SVG Export Plug-In . SVG Version: 6.00 Build 0)  -->
<svg version="1.1" id="Layer_1" xmlns="http://www.w3.org/2000/svg" xmlns:xlink="http://www.w3.org/1999/xlink" x="0px" y="0px"
	 viewBox="0 0 500 500" style="enable-background:new 0 0 500 500;" xml:space="preserve">
<style type="text/css">
	.st0{opacity:0.7;}
	.st1{fill:#56C174;}
	.st2{opacity:0.4;fill:#FFFFFF;enable-background:new    ;}
	.st3{fill:#FFFFFF;}
	.st4{clip-path:url(#SVGID_00000052798567784397822100000000215205890299222965_);}
	.st5{opacity:0.2;enable-background:new    ;}
	.st6{fill:none;stroke:#263238;stroke-miterlimit:10;}
	.st7{fill:none;stroke:#263238;stroke-linecap:round;stroke-linejoin:round;}
	.st8{fill:#263238;}
	.st9{fill:#FFFFFF;stroke:#263238;stroke-linecap:round;stroke-linejoin:round;}
	.st10{opacity:0.3;fill:#FFFFFF;enable-background:new    ;}
	.st11{fill:#FFFFFF;stroke:#263238;stroke-linecap:round;stroke-miterlimit:10;}
	.st12{clip-path:url(#SVGID_00000072258781675447369070000002678132419943042747_);}
	.st13{opacity:0.3;enable-background:new    ;}
	.st14{opacity:0.5;fill:#FFFFFF;enable-background:new    ;}
	.st15{opacity:0.2;}
	.st16{fill:#263238;stroke:#263238;stroke-linecap:round;stroke-linejoin:round;}
</style>
<g id="freepik--background-simple--inject-284">
	<g id="freepik--background-simple--inject-1--inject-284" class="st0">
		<path class="st1" d="M434.1,59c0,0-55.4-57.3-143.2-54.5S128.3,62.6,66.4,106s-78.5,110.9-42.5,163.5s93.3,30.5,166.3,64.7
			s86.8,53.6,168.1,45.3s143.2-93.3,134-183.8C483,105.1,434.1,59,434.1,59z"/>
		<path class="st2" d="M434.1,59c0,0-55.4-57.3-143.2-54.5S128.3,62.6,66.4,106s-78.5,110.9-42.5,163.5s93.3,30.5,166.3,64.7
			s86.8,53.6,168.1,45.3s143.2-93.3,134-183.8C483,105.1,434.1,59,434.1,59z"/>
	</g>
</g>
<g id="freepik--Dashboard--inject-284">
	<path class="st3" d="M100.4,81h297.5c10.1,0,18.4,8.2,18.4,18.4v193.3c0,10.1-8.2,18.4-18.4,18.4H100.4c-10.1,0-18.4-8.2-18.4-18.4
		V99.4C82.1,89.3,90.3,81,100.4,81z"/>
	<g>
		<defs>
			<path id="SVGID_1_" d="M100.4,81h297.5c10.1,0,18.4,8.2,18.4,18.4v193.3c0,10.1-8.2,18.4-18.4,18.4H100.4
				c-10.1,0-18.4-8.2-18.4-18.4V99.4C82.1,89.3,90.3,81,100.4,81z"/>
		</defs>
		<clipPath id="SVGID_00000176760888966368529710000009683125435527183768_">
			<use xlink:href="#SVGID_1_"  style="overflow:visible;"/>
		</clipPath>
		<g style="clip-path:url(#SVGID_00000176760888966368529710000009683125435527183768_);">
			<path class="st1" d="M117,81v230h-16.6c-10.1,0-18.4-8.2-18.4-18.4l0,0V99.4c0-10.1,8.2-18.4,18.4-18.4H117z"/>
			<path class="st5" d="M117,81v230h-16.6c-10.1,0-18.4-8.2-18.4-18.4l0,0V99.4c0-10.1,8.2-18.4,18.4-18.4H117z"/>
		</g>
	</g>
	<path class="st6" d="M100.4,81h297.5c10.1,0,18.4,8.2,18.4,18.4v193.3c0,10.1-8.2,18.4-18.4,18.4H100.4c-10.1,0-18.4-8.2-18.4-18.4
		V99.4C82.1,89.3,90.3,81,100.4,81z"/>
	<line class="st7" x1="199" y1="225.7" x2="199" y2="224.6"/>
	<line class="st7" x1="311.4" y1="225.7" x2="311.4" y2="224.6"/>
	<line class="st7" x1="204.6" y1="225.7" x2="204.6" y2="184.6"/>
	<line class="st7" x1="204.6" y1="220.5" x2="207.4" y2="220.5"/>
	<line class="st7" x1="204.6" y1="215.4" x2="207.4" y2="215.4"/>
	<line class="st7" x1="204.6" y1="210.3" x2="207.4" y2="210.3"/>
	<line class="st7" x1="204.6" y1="205.1" x2="207.4" y2="205.1"/>
	<line class="st7" x1="204.6" y1="200" x2="207.4" y2="200"/>
	<line class="st7" x1="204.6" y1="194.9" x2="207.4" y2="194.9"/>
	<line class="st7" x1="204.6" y1="189.8" x2="207.4" y2="189.8"/>
	<line class="st7" x1="204.6" y1="184.6" x2="207.4" y2="184.6"/>
	<rect x="293.6" y="194.9" class="st8" width="6.2" height="30.8"/>
	<rect x="286.7" y="218" class="st1" width="6.2" height="7.7"/>
	<rect x="279.8" y="216.4" class="st8" width="6.2" height="9.2"/>
	<rect x="272.8" y="200" class="st1" width="6.2" height="25.7"/>
	<rect x="265.9" y="210.3" class="st8" width="6.2" height="15.4"/>
	<rect x="259" y="212.8" class="st1" width="6.2" height="12.8"/>
	<rect x="252.1" y="215.4" class="st8" width="6.2" height="10.3"/>
	<rect x="245.2" y="189.8" class="st1" width="6.2" height="35.9"/>
	<rect x="238.3" y="220.5" class="st8" width="6.2" height="5.1"/>
	<rect x="231.4" y="210.3" class="st1" width="6.2" height="15.4"/>
	<rect x="224.5" y="200.2" class="st8" width="6.2" height="25.7"/>
	<rect x="217.5" y="205.1" class="st1" width="6.2" height="20.5"/>
	<rect x="210.6" y="215.4" class="st8" width="6.2" height="10.3"/>
	<line class="st7" x1="199" y1="225.7" x2="311.4" y2="225.7"/>
	<path class="st9" d="M190.4,102.1L190.4,102.1c0.8,0,1.4,0.6,1.4,1.4v0l0,0c0,0.8-0.6,1.4-1.4,1.4h0l0,0c-0.8,0-1.4-0.6-1.4-1.4
		l0,0C189,102.7,189.7,102.1,190.4,102.1L190.4,102.1z"/>
	<line class="st7" x1="139.8" y1="161.5" x2="287.7" y2="161.5"/>
	<line class="st7" x1="139.8" y1="161.5" x2="139.8" y2="160"/>
	<line class="st7" x1="147.6" y1="161.5" x2="147.6" y2="160"/>
	<line class="st7" x1="155.4" y1="161.5" x2="155.4" y2="160"/>
	<line class="st7" x1="163.2" y1="161.5" x2="163.2" y2="160"/>
	<line class="st7" x1="171" y1="161.5" x2="171" y2="160"/>
	<line class="st7" x1="178.7" y1="161.5" x2="178.7" y2="160"/>
	<line class="st7" x1="186.5" y1="161.5" x2="186.5" y2="160"/>
	<line class="st7" x1="194.3" y1="161.5" x2="194.3" y2="160"/>
	<line class="st7" x1="202.1" y1="161.5" x2="202.1" y2="160"/>
	<line class="st7" x1="209.9" y1="161.5" x2="209.9" y2="160"/>
	<line class="st7" x1="217.7" y1="161.5" x2="217.7" y2="160"/>
	<line class="st7" x1="225.5" y1="161.5" x2="225.5" y2="160"/>
	<line class="st7" x1="233.2" y1="161.5" x2="233.2" y2="160"/>
	<line class="st7" x1="241" y1="161.5" x2="241" y2="160"/>
	<line class="st7" x1="248.8" y1="161.5" x2="248.8" y2="160"/>
	<line class="st7" x1="256.6" y1="161.5" x2="256.6" y2="160"/>
	<line class="st7" x1="264.4" y1="161.5" x2="264.4" y2="160"/>
	<line class="st7" x1="272.2" y1="161.5" x2="272.2" y2="160"/>
	<line class="st7" x1="280" y1="161.5" x2="280" y2="160"/>
	<line class="st7" x1="287.7" y1="161.5" x2="287.7" y2="160"/>
	<line class="st7" x1="139.8" y1="161.5" x2="139.8" y2="103.4"/>
	<line class="st7" x1="139.8" y1="149.9" x2="143.5" y2="149.9"/>
	<line class="st7" x1="139.8" y1="138.2" x2="143.5" y2="138.2"/>
	<line class="st7" x1="139.8" y1="126.6" x2="143.5" y2="126.6"/>
	<line class="st7" x1="139.8" y1="115" x2="143.5" y2="115"/>
	<line class="st7" x1="139.8" y1="103.4" x2="143.5" y2="103.4"/>
	<line class="st7" x1="151.5" y1="115" x2="143.7" y2="149.9"/>
	<line class="st7" x1="159.3" y1="134.8" x2="151.5" y2="115"/>
	<line class="st7" x1="167.1" y1="126.6" x2="159.3" y2="134.8"/>
	<line class="st7" x1="174.9" y1="147.5" x2="167.1" y2="126.6"/>
	<line class="st7" x1="182.6" y1="115" x2="174.9" y2="147.5"/>
	<line class="st7" x1="190.4" y1="103.4" x2="182.6" y2="115"/>
	<line class="st7" x1="198.2" y1="155.6" x2="190.4" y2="103.4"/>
	<line class="st7" x1="206" y1="152.2" x2="198.2" y2="155.6"/>
	<line class="st7" x1="213.8" y1="151" x2="206" y2="152.2"/>
	<line class="st7" x1="221.6" y1="147.5" x2="213.8" y2="151"/>
	<line class="st7" x1="229.3" y1="142.9" x2="221.6" y2="147.5"/>
	<line class="st7" x1="237.1" y1="145.2" x2="229.3" y2="142.9"/>
	<line class="st7" x1="244.9" y1="149.9" x2="237.1" y2="145.2"/>
	<line class="st7" x1="252.7" y1="125.5" x2="244.9" y2="149.9"/>
	<line class="st7" x1="260.5" y1="122" x2="252.7" y2="125.5"/>
	<line class="st7" x1="268.3" y1="117.4" x2="260.5" y2="122"/>
	<line class="st7" x1="276.1" y1="122" x2="268.3" y2="117.4"/>
	<line class="st7" x1="283.8" y1="126.6" x2="276.1" y2="122"/>
	<path class="st9" d="M143.7,148.5L143.7,148.5c0.8,0,1.4,0.6,1.4,1.4c0,0,0,0,0,0l0,0c0,0.8-0.6,1.4-1.4,1.4l0,0
		c-0.8,0-1.4-0.6-1.4-1.4l0,0C142.3,149.1,142.9,148.5,143.7,148.5C143.7,148.5,143.7,148.5,143.7,148.5z"/>
	<path class="st9" d="M151.5,113.7L151.5,113.7c0.8,0,1.4,0.6,1.4,1.4v0l0,0c0,0.8-0.6,1.4-1.4,1.4h0l0,0c-0.8,0-1.4-0.6-1.4-1.4v0
		l0,0C150.1,114.3,150.7,113.7,151.5,113.7L151.5,113.7z"/>
	<path class="st9" d="M159.3,133.4L159.3,133.4c0.8,0,1.4,0.6,1.4,1.4v0l0,0c0,0.8-0.6,1.4-1.4,1.4h0l0,0c-0.8,0-1.4-0.6-1.4-1.4v0
		l0,0C157.9,134,158.5,133.4,159.3,133.4L159.3,133.4z"/>
	<path class="st9" d="M167.1,125.3L167.1,125.3c0.8,0,1.4,0.6,1.4,1.4l0,0c0,0.8-0.6,1.4-1.4,1.4h0l0,0c-0.8,0-1.4-0.6-1.4-1.4v0
		l0,0C165.7,125.9,166.3,125.3,167.1,125.3C167.1,125.3,167.1,125.3,167.1,125.3z"/>
	<path class="st9" d="M174.9,146.2L174.9,146.2c0.8,0,1.4,0.6,1.4,1.4v0l0,0c0,0.8-0.6,1.4-1.4,1.4l0,0c-0.8,0-1.4-0.6-1.4-1.4l0,0
		C173.5,146.8,174.1,146.2,174.9,146.2L174.9,146.2z"/>
	<path class="st9" d="M182.7,113.7L182.7,113.7c0.8,0,1.4,0.6,1.4,1.4v0l0,0c0,0.8-0.6,1.4-1.4,1.4h0l0,0c-0.8,0-1.4-0.6-1.4-1.4v0
		l0,0C181.3,114.3,181.9,113.7,182.7,113.7L182.7,113.7z"/>
	<path class="st9" d="M198.2,154.3L198.2,154.3c0.8,0,1.4,0.6,1.4,1.4v0l0,0c0,0.8-0.6,1.4-1.4,1.4h0l0,0c-0.8,0-1.4-0.6-1.4-1.4v0
		l0,0C196.8,154.9,197.4,154.3,198.2,154.3L198.2,154.3z"/>
	<path class="st9" d="M206,150.8L206,150.8c0.8,0,1.4,0.6,1.4,1.4c0,0,0,0,0,0l0,0c0,0.8-0.6,1.4-1.4,1.4h0l0,0
		c-0.8,0-1.4-0.6-1.4-1.4v0l0,0C204.6,151.4,205.2,150.8,206,150.8z"/>
	<path class="st9" d="M213.8,149.6L213.8,149.6c0.8,0,1.4,0.6,1.4,1.4c0,0,0,0,0,0l0,0c0,0.8-0.6,1.4-1.4,1.4h0l0,0
		c-0.8,0-1.4-0.6-1.4-1.4v0l0,0C212.4,150.2,213,149.6,213.8,149.6z"/>
	<path class="st9" d="M221.6,146.2L221.6,146.2c0.8,0,1.4,0.6,1.4,1.4v0l0,0c0,0.8-0.6,1.4-1.4,1.4l0,0c-0.8,0-1.4-0.6-1.4-1.4l0,0
		C220.2,146.8,220.8,146.2,221.6,146.2L221.6,146.2z"/>
	<path class="st9" d="M229.3,141.5L229.3,141.5c0.8,0,1.4,0.6,1.4,1.4v0l0,0c0,0.8-0.6,1.4-1.4,1.4l0,0c-0.8,0-1.4-0.6-1.4-1.4l0,0
		C228,142.1,228.6,141.5,229.3,141.5L229.3,141.5z"/>
	<path class="st9" d="M237.2,143.8L237.2,143.8c0.8,0,1.4,0.6,1.4,1.4l0,0c0,0.8-0.6,1.4-1.4,1.4l0,0c-0.8,0-1.4-0.6-1.4-1.4l0,0
		C235.8,144.4,236.4,143.8,237.2,143.8L237.2,143.8L237.2,143.8z"/>
	<path class="st9" d="M244.9,148.5L244.9,148.5c0.8,0,1.4,0.6,1.4,1.4c0,0,0,0,0,0l0,0c0,0.8-0.6,1.4-1.4,1.4l0,0
		c-0.8,0-1.4-0.6-1.4-1.4l0,0C243.5,149.1,244.1,148.5,244.9,148.5L244.9,148.5z"/>
	<path class="st9" d="M252.7,124.1L252.7,124.1c0.8,0,1.4,0.6,1.4,1.4l0,0c0,0.8-0.6,1.4-1.4,1.4l0,0c-0.8,0-1.4-0.6-1.4-1.4l0,0
		C251.3,124.7,251.9,124.1,252.7,124.1z"/>
	<path class="st9" d="M260.5,120.6L260.5,120.6c0.8,0,1.4,0.6,1.4,1.4l0,0c0,0.8-0.6,1.4-1.4,1.4l0,0c-0.8,0-1.4-0.6-1.4-1.4l0,0
		C259.1,121.2,259.7,120.6,260.5,120.6z"/>
	<path class="st9" d="M268.3,116L268.3,116c0.8,0,1.4,0.6,1.4,1.4l0,0c0,0.8-0.6,1.4-1.4,1.4l0,0c-0.8,0-1.4-0.6-1.4-1.4l0,0
		C266.9,116.6,267.5,116,268.3,116z"/>
	<path class="st9" d="M276.1,120.6L276.1,120.6c0.8,0,1.4,0.6,1.4,1.4l0,0c0,0.8-0.6,1.4-1.4,1.4l0,0c-0.8,0-1.4-0.6-1.4-1.4l0,0
		C274.7,121.2,275.3,120.6,276.1,120.6z"/>
	<path class="st9" d="M283.8,125.3L283.8,125.3c0.8,0,1.4,0.6,1.4,1.4l0,0c0,0.8-0.6,1.4-1.4,1.4l0,0c-0.8,0-1.4-0.6-1.4-1.4l0,0
		C282.5,125.9,283.1,125.3,283.8,125.3L283.8,125.3z"/>
	<path class="st1" d="M147.7,259h166.1c4.4,0,7.9,3.5,7.9,7.9v22.7c0,4.4-3.5,7.9-7.9,7.9H147.7c-4.4,0-7.9-3.5-7.9-7.9v-22.7
		C139.8,262.5,143.3,259,147.7,259z"/>
	<rect x="347.2" y="100.8" class="st8" width="57.5" height="2.3"/>
	<rect x="347.2" y="109.1" class="st8" width="57.5" height="2.3"/>
	<rect x="347.2" y="117.5" class="st8" width="57.5" height="2.3"/>
	<rect x="347.2" y="125.8" class="st8" width="57.5" height="2.3"/>
	<rect x="347.2" y="134.1" class="st8" width="57.5" height="2.3"/>
	<rect x="347.2" y="183" class="st8" width="57.5" height="2.3"/>
	<rect x="347.2" y="191.3" class="st8" width="57.5" height="2.3"/>
	<rect x="347.2" y="199.7" class="st8" width="57.5" height="2.3"/>
	<rect x="347.2" y="208" class="st8" width="57.5" height="2.3"/>
	<rect x="347.2" y="216.3" class="st8" width="57.5" height="2.3"/>
	<rect x="347.2" y="263.1" class="st8" width="57.5" height="2.3"/>
	<rect x="347.2" y="271.4" class="st8" width="57.5" height="2.3"/>
	<rect x="347.2" y="279.7" class="st8" width="57.5" height="2.3"/>
	<rect x="347.2" y="288.1" class="st8" width="57.5" height="2.3"/>
	<rect x="347.2" y="296.4" class="st8" width="57.5" height="2.3"/>
	<rect x="347.2" y="100.8" class="st10" width="57.5" height="2.3"/>
	<rect x="347.2" y="109.1" class="st10" width="57.5" height="2.3"/>
	<rect x="347.2" y="117.5" class="st10" width="57.5" height="2.3"/>
	<rect x="347.2" y="125.8" class="st10" width="57.5" height="2.3"/>
	<rect x="347.2" y="134.1" class="st10" width="57.5" height="2.3"/>
	<rect x="347.2" y="183" class="st10" width="57.5" height="2.3"/>
	<rect x="347.2" y="191.3" class="st10" width="57.5" height="2.3"/>
	<rect x="347.2" y="199.7" class="st10" width="57.5" height="2.3"/>
	<rect x="347.2" y="208" class="st10" width="57.5" height="2.3"/>
	<rect x="347.2" y="216.3" class="st10" width="57.5" height="2.3"/>
	<rect x="347.2" y="263.1" class="st10" width="57.5" height="2.3"/>
	<rect x="347.2" y="271.4" class="st10" width="57.5" height="2.3"/>
	<rect x="347.2" y="279.7" class="st10" width="57.5" height="2.3"/>
	<rect x="347.2" y="288.1" class="st10" width="57.5" height="2.3"/>
	<rect x="347.2" y="296.4" class="st10" width="57.5" height="2.3"/>
	<rect x="144.7" y="268.5" class="st3" width="172.7" height="2.3"/>
	<rect x="144.7" y="277.2" class="st3" width="172.7" height="2.3"/>
	<rect x="144.7" y="285.8" class="st3" width="172.7" height="2.3"/>
	<path class="st8" d="M157.4,206.9l-13.5,12.6c-7-7.5-6.6-19.2,0.9-26.2c0,0,0,0,0,0l0,0c3.4-3.3,7.9-5,12.6-5L157.4,206.9z"/>
	<path class="st1" d="M157.4,206.9l16.7-8.1c4.4,9.2,0.5,20.3-8.7,24.7c-7.3,3.5-15.9,1.9-21.4-4L157.4,206.9z"/>
	<path class="st8" d="M157.4,206.9v-18.5c7.1-0.1,13.7,4,16.7,10.4L157.4,206.9z"/>
	<path class="st10" d="M157.4,206.9l-13.5,12.6c-7-7.5-6.6-19.2,0.9-26.2c0,0,0,0,0,0l0,0c3.4-3.3,7.9-5,12.6-5L157.4,206.9z"/>
</g>
<g id="freepik--Character--inject-284">
	<path class="st11" d="M336.6,445.7c0,0,2.3,6.4,1,5.7c-1.4-0.9-2.5-2.2-3.1-3.8c-0.6-1.4-1.6-2.7-2.9-3.6l-2.9-2.3
		c0,0,2.7-1.1,4.4-0.3S336.6,445.7,336.6,445.7z"/>
	<path class="st11" d="M338.1,443.1c0,0,3.9,7.6,3.2,8.3c-0.7,0.6-1.1,0.5-2.6-0.8c-1.5-1.4-3.3-5.7-3.3-5.7l-3.2-3.4
		C332.2,441.4,336.8,439.8,338.1,443.1z"/>
	<path class="st9" d="M321.3,433.1c0,0,8.2,1.4,10.1,1.7c1.9,0.3,4.3,2.6,6.2,4c1.9,1.5,8,6.3,7.4,7.7c-0.6,1.4-2.9,0.1-4.9-1.4
		s-3.6-3.2-6.5-2.7c-2,0.4-3.9,1.2-5.6,2.2c1.3,1.5,2.7,2.9,4.3,4.2c1.9,1.5,4.3,4.4,3.3,5.1c-1,0.6-2.4,1-4.5-1.1
		s-9.2-4.8-11.1-7.3c-4.4-5.8-9.8-6-9.8-6l9.4-7.5L321.3,433.1z"/>
	<path class="st1" d="M319.8,431.7L281,414.7l-0.1-0.1l-0.5-0.2c0,0-0.1-6.7-0.4-14.7v-0.2c-0.2-6.4-0.5-13.5-0.9-18.9
		c0-0.2,0-0.4-0.1-0.7c-0.1-1.3-0.2-2.5-0.3-3.5l-0.1-1.4c-0.4-3.8-1.1-9.9-2.1-16.6c-0.1-0.4-0.1-0.8-0.2-1.1
		c-1.3-8.4-3-17.5-5.2-24c0,0,0-0.1,0-0.1c-0.4-1.2-0.9-2.4-1.4-3.5c-0.1-0.2-0.2-0.5-0.3-0.7l-3-0.7c-1-0.2-2.3-0.5-3.6-0.8h-0.1
		c-5-1.1-11.7-2.4-15.5-3h-0.3c-0.5-0.1-0.9-0.1-1.3-0.1h-0.3l0,0c0-0.1-0.2-0.5-0.4-1l0,0c-0.8-2-2.9-6.2-7-7.9l0,0
		c-1.4-0.6-2.9-0.8-4.4-0.7c0,0,0,0-0.1,0l0,0c0,0-0.1,0-0.1,0l-1.3,0.1l-2.7,0.2c-4.8,0.4-8.4,0.6-10.2,0.7l0,0h-0.6h-0.4H218
		c-0.2,0-0.3,0.1-0.5,0.2c-1.3,0.6-4.7,3.1-6.2,12.2c-0.1,0.5-0.1,0.9-0.1,0.9l-1.2,0.3l-4.5,1.1l0,0l-28.7,8c0,0-1.8,6.8-4.3,17
		l-0.1,0.3l-4.8,19l-0.3,1.4c-5.8,22.9-12.3,49.1-13.9,56.9c-0.2,1,0.2,1.9,1,2.5c3.8,2.8,16.6,10.6,45.8,13.9c0,0-1.2,9.3-0.7,9.8
		h72.4l-0.9-11.6l0,0l-0.5-3.1l0,0l-0.6-3.7l-0.9-5.7l-0.8-5l0.5,0.1l0.4,0.1l41.4,9L319.8,431.7z M217.1,418.8c-1,3-2.3,6-3.9,8.8
		l0,0c-0.9,1.6-1.5,2.8-1.5,2.8l-31.9-8.5h-0.1l14.4-44.4l0,0l0.1-0.1L217.1,418.8L217.1,418.8C217.1,418.8,217.1,418.8,217.1,418.8
		z"/>
	<g>
		<defs>
			<path id="SVGID_00000137109090054277822360000011777676987968278452_" d="M319.8,431.7L281,414.7l-0.1-0.1l-0.5-0.2
				c0,0-0.1-6.7-0.4-14.7v-0.2c-0.2-6.4-0.5-13.5-0.9-18.9c0-0.2,0-0.4-0.1-0.7c-0.1-1.3-0.2-2.5-0.3-3.5l-0.1-1.4
				c-0.4-3.8-1.1-9.9-2.1-16.6c-0.1-0.4-0.1-0.8-0.2-1.1c-1.3-8.4-3-17.5-5.2-24c0,0,0-0.1,0-0.1c-0.4-1.2-0.9-2.4-1.4-3.5
				c-0.1-0.2-0.2-0.5-0.3-0.7l-3-0.7c-1-0.2-2.3-0.5-3.6-0.8h-0.1c-5-1.1-11.7-2.4-15.5-3h-0.3c-0.5-0.1-0.9-0.1-1.3-0.1h-0.3l0,0
				c0-0.1-0.2-0.5-0.4-1l0,0c-0.8-2-2.9-6.2-7-7.9l0,0c-1.4-0.6-2.9-0.8-4.4-0.7c0,0,0,0-0.1,0l0,0c0,0-0.1,0-0.1,0l-1.3,0.1
				l-2.7,0.2c-4.8,0.4-8.4,0.6-10.2,0.7l0,0h-0.6h-0.4H218c-0.2,0-0.3,0.1-0.5,0.2c-1.3,0.6-4.7,3.1-6.2,12.2
				c-0.1,0.5-0.1,0.9-0.1,0.9l-1.2,0.3l-4.5,1.1l0,0l-28.7,8c0,0-1.8,6.8-4.3,17l-0.1,0.3l-4.8,19l-0.3,1.4
				c-5.8,22.9-12.3,49.1-13.9,56.9c-0.2,1,0.2,1.9,1,2.5c3.8,2.8,16.6,10.6,45.8,13.9c0,0-1.2,9.3-0.7,9.8h72.4l-0.9-11.6l0,0
				l-0.5-3.1l0,0l-0.6-3.7l-0.9-5.7l-0.8-5l0.5,0.1l0.4,0.1l41.4,9L319.8,431.7z M217.1,418.8c-1,3-2.3,6-3.9,8.8l0,0
				c-0.9,1.6-1.5,2.8-1.5,2.8l-31.9-8.5h-0.1l14.4-44.4l0,0l0.1-0.1L217.1,418.8L217.1,418.8C217.1,418.8,217.1,418.8,217.1,418.8z"
				/>
		</defs>
		<clipPath id="SVGID_00000084527121843284668260000011556880004299618968_">
			<use xlink:href="#SVGID_00000137109090054277822360000011777676987968278452_"  style="overflow:visible;"/>
		</clipPath>
		<g style="clip-path:url(#SVGID_00000084527121843284668260000011556880004299618968_);">
			<polygon class="st13" points="272.7,390.1 272.7,420.5 314.6,437.2 310.4,439.5 268.1,430.4 266.9,417.9 268,397.6 			"/>
		</g>
	</g>
	<path class="st7" d="M272.1,350.8l0.2,15.2c0,0,3.1,12.2,2.5,16.4c-0.6,4.2-4.6,12.7-6.8,15.2l-1.1,20.2l1.8,19"/>
	<path class="st8" d="M243.6,249.1c3,1.9,5.4,4.7,6.8,8c1.2,3.2,1.8,6.6,1.9,10c0.5,4.9,0.6,9.9,0.4,14.9
		c-0.4,9.1-2.4,18.4-0.5,27.3c1.3,5.9,5.2,9.6,5.2,16.6l-12.2-1.5c0,0-3.8-8-12-9.6l-0.6-1.4c0,0,6.5,0.5,11.4-11.7
		c4.9-12.2,3.6-25.8,3.6-25.8v-13.7L243.6,249.1z"/>
	<path class="st3" d="M218.1,307.4l0.8,17c0,0,13.9,24.4,18.6,25.1c4.7,0.7,0-25-1.9-28.6c-1.9-3.6-3.4-12.1-3.4-12.1L218.1,307.4z"
		/>
	<path class="st3" d="M216.4,254.1c-1.2-0.7-12.3-1.2-13.8,2.7c-2.2,5.7,1.4,21.6,0.8,21.6c-2.7-0.1-6.8-1-6.2,3.7
		c0.6,4.7,4.2,9.3,6.8,9.7l2.6,0.4c1.7,6.6,6,12.3,11.9,15.8c10.2,6.6,17.8,7.4,21.4,1.6c3.9-5.6,6.5-12.1,7.6-18.8
		c3.4-33.4-5.1-40.9-5.1-40.9S217.6,254.8,216.4,254.1z"/>
	<path class="st1" d="M231.8,251.8c0,0-5.4,23-22.4,28.1c0,0,0.2,26.3,19.7,32.1c0,0,2.7,18.2-8.7,14.9l-2.3-4.7v-14.8
		c0,0-10.2-7.7-10.7-15.5c0,0-5.2,0-7.4-3.4c-2.2-3.4-3.5-7.8-2.4-10.3s8.5-2.5,8.5-2.5L231.8,251.8z"/>
	<path class="st14" d="M231.8,251.8c0,0-5.4,23-22.4,28.1c0,0,0.2,26.3,19.7,32.1c0,0,2.7,18.2-8.7,14.9l-2.3-4.7v-14.8
		c0,0-10.2-7.7-10.7-15.5c0,0-5.2,0-7.4-3.4c-2.2-3.4-3.5-7.8-2.4-10.3s8.5-2.5,8.5-2.5L231.8,251.8z"/>
	<path class="st8" d="M204.7,279c0,0,25.6-12.1,27.2-27.2c0,0,7.2,16,18.6,22.1c0,0,8.4-28.3-17.7-26.6c0,0-18.9-11-31.3,0.1
		s-9.3,41.7-18.3,59.7c-9.1,17.9-40.4,30.4-13.7,59.9l7.3-27.5l34.5-10.4c0,0,1.3-9.6,8-12l-0.3-9c0,0-9.2-6-12.3-16.1
		c0,0-5.6-0.2-8.6-7.1C194.9,277.9,199.8,276.1,204.7,279z"/>
	<g class="st15">
		<path class="st7" d="M225.7,249c-4.7,11.2-12.9,20.6-23.4,26.8"/>
		<path class="st7" d="M216.3,246c-4.9,10.1-10.7,19.8-17.3,28.9"/>
		<path class="st7" d="M195.6,289.5c-0.6,7.6-4.2,14.6-8.3,21c-4.1,6.4-8.8,12.5-11.9,19.4c-3.2,6.9-4.7,15-2.1,22.2"/>
		<path class="st7" d="M200.3,291.6c1.2,14-0.4,28-4.7,41.3"/>
	</g>
	<path class="st1" d="M176.6,339.5l0.4-0.1L176.6,339.5l-6.7,29.1l-6.5,26.1l6.8-28L176.6,339.5z"/>
	<path class="st14" d="M176.6,339.5l0.4-0.1L176.6,339.5l-6.7,29.1l-6.5,26.1l6.8-28L176.6,339.5z"/>
	<path class="st8" d="M238.8,348.8L238.8,348.8c-0.2,0.3-0.6,0.4-1,0.4h-0.1c-3.2-0.2-12.4-12.8-13.4-14.3c-5.5-7.6-5.7-8.3-6.3-14
		l-0.1-1.1c-0.4-3.4-0.5-6.6-0.6-9c0-0.7,0-1.4-0.1-1.9c0.5,0.3,1.1,0.5,1.6,0.8c0,0.4,0,0.8,0,1.2c0,0.2,0,0.4,0,0.7
		c0.1,2.3,0.3,5.2,0.6,8.2l0.1,1.1c0.5,5.5,0.6,5.7,6,13.2c6.1,8.5,10.9,13.3,12.2,13.6c0.3-0.2,0.7-0.2,0.9,0
		C239,347.9,239,348.4,238.8,348.8C238.8,348.7,238.8,348.8,238.8,348.8z"/>
	<path class="st8" d="M239.2,346c0,0.4-0.4,0.7-0.8,0.7c-0.4,0-0.8-0.4-0.7-0.9c0-0.1,1.1-11.4-0.8-18.8c-0.8-3.2-2.1-6.3-3.8-9.2
		c-0.7-0.9-1.1-2-1.2-3.1c0-0.2,0-0.4,0-0.6s0-0.2,0-0.3c0-0.5,0-0.9-0.1-1.3c0.5,0,1,0,1.6,0c0,0.3,0,0.6,0.1,0.9
		c0.1,0.3,0,0.5,0,0.8c0,0.3,0,0.4,0,0.7c0.2,0.8,0.5,1.5,0.9,2.2c1.8,3,3.2,6.2,4,9.6C240.4,334.3,239.3,345.6,239.2,346z"/>
	<path class="st8" d="M227.1,342.7c-0.2-0.4-0.7-0.5-1.1-0.3c0,0,0,0-0.1,0c-1.5,1.2-2.7,2.7-3.7,4.3c-1.6,2.6-2.9,5.4-3.9,8.3
		l-8.3-18.7c0.2-1.2,1.4-6.6,2.4-11.1c0.9-3.2,2.8-6.1,5.4-8.2l0,0c0.3-0.3,0.3-0.8,0-1.1c0,0,0,0,0,0c-0.3-0.4-0.8-0.4-1.1-0.1
		c0,0,0,0,0,0c-2.9,2.3-4.9,5.5-5.9,9.1c-1.2,5.2-2.5,11.4-2.5,11.4v0.3l10,22.5h0.3l0.4-1.6c1-3.4,2.5-6.7,4.3-9.8
		c0.9-1.4,2-2.8,3.2-3.9c0.4-0.2,0.6-0.6,0.4-1C227.2,342.7,227.2,342.7,227.1,342.7z"/>
	<path class="st8" d="M253.8,352.7l0.3-0.1l-0.5-2.8c-0.1-0.7-2.8-17.2-8.8-26.7c-6-9.5-10.7-9.1-10.9-9.1c-0.4,0.1-0.7,0.6-0.5,1
		c0.1,0.3,0.4,0.6,0.7,0.6c0,0,4-0.2,9.4,8.3c4.1,6.5,6.8,17.1,7.9,22.7c-1.6-2.3-3.5-4.3-5.7-6c-1.4-1-3.2-1.3-4.9-0.9l0,0
		c-0.4,0.2-0.6,0.6-0.4,1c0.2,0.4,0.5,0.5,0.9,0.4c1.3-0.2,2.6,0.1,3.6,0.8c2,1.1,5.9,6.4,7.2,8.3L253.8,352.7z"/>
	<path class="st8" d="M232.2,404.7c-0.1,0-0.3-0.1-0.3-0.2c-0.1-0.2,0-0.4,0.1-0.5l0,0l24.2-13.4c0.2-0.1,0.4,0,0.5,0.2
		c0.1,0.2,0,0.4-0.1,0.5l-24.2,13.4C232.3,404.7,232.3,404.7,232.2,404.7z"/>
	<path class="st8" d="M244.8,400.7c-0.1,0-0.3-0.1-0.3-0.2c-0.1-0.2,0-0.4,0.1-0.5c0,0,0,0,0,0l0,0l13.1-6.8
		c0.2-0.1,0.4-0.1,0.5,0.1c0,0,0,0,0,0c0.1,0.2,0,0.4-0.2,0.5c0,0,0,0,0,0l-13.1,6.8C244.9,400.7,244.8,400.7,244.8,400.7z"/>
	<path class="st8" d="M189.9,360.6c-0.2,0-0.3-0.1-0.4-0.3c-3-6.4-6.4-12.6-10.2-18.6c-0.1-0.2-0.1-0.4,0.1-0.5l0,0
		c0.2-0.1,0.4-0.1,0.5,0.1c0,0,0,0,0,0c3.8,6,7.3,12.3,10.3,18.8c0.1,0.2,0,0.4-0.2,0.5L189.9,360.6z"/>
	<path class="st8" d="M244.6,371c-0.2,0-0.4-0.1-0.4-0.3c-1.7-7.1-4-14-6.9-20.6c-0.1-0.2,0-0.4,0.2-0.5c0.2-0.1,0.4,0,0.5,0.2
		c3,6.7,5.3,13.7,7,20.9C245,370.8,244.9,371,244.6,371L244.6,371z"/>
	<path class="st8" d="M270.5,328.4c0,0.6,0.1,1.4,0.2,2.4c-0.2-0.3-0.4-0.5-0.5-0.6c-1.7-2.3-14.5-3.7-23.1-4.1
		c-0.6,0-1.2-0.1-1.8-0.1c0,0-0.1,0-0.1,0c-0.4,0-0.7-0.4-0.7-0.8c0-0.1,0-0.2,0.1-0.3l0,0c0.1-0.3,0.4-0.5,0.7-0.4l1.4,0.1
		c4.3,0.2,16.4,0.9,22.1,3.1C269.4,327.8,270,328,270.5,328.4z"/>
	<path class="st8" d="M275,377.2c0.1,0.6,0.2,1.1,0.3,1.7l-0.4-0.2c-0.4-0.2-0.5-0.7-0.3-1.1c0,0,0,0,0-0.1c0,0,0.1-0.1,0.1-0.1
		C274.7,377.3,274.8,377.2,275,377.2z"/>
	<path class="st8" d="M248.8,273.6c0-0.2,0-0.4,0-0.6c0-1.5-0.1-3-0.2-4.5v-0.3l-0.6,1.1l0,0l-0.1,0.3l-0.6,1c0,0.4,0,0.9,0,1.3
		c0,0.3,0,0.5,0,0.7c0.1,4.4-0.1,9-0.5,13.4c-0.1,1.8-0.3,3.6-0.5,5.3c-0.9,6.4-3.4,12.4-7.1,17.7c0,0,0,0,0,0.1
		c-0.3,0.5-0.6,0.9-1,1.3c-0.6,0.7-1.4,1.2-2.2,1.5l-0.5,0.2c-0.2,0.1-0.4,0.1-0.6,0.2c-0.3,0.1-0.6,0.1-0.9,0.1c-0.2,0-0.3,0-0.5,0
		h-0.5c-0.3,0-0.7,0-1,0c-0.9-0.1-1.9-0.3-2.8-0.5l0,0c-2.7-0.8-5.3-1.9-7.8-3.4l0,0l0,0l0,0l0,0l0,0c-0.5-0.3-1-0.6-1.5-0.9
		c0,0-0.1,0-0.1-0.1l0,0l-0.6-0.4c-5.7-3.4-9.8-8.9-11.5-15.3l-0.1-0.6l-3.2-0.5c-2.3-0.4-5.6-4.6-6.1-9c-0.2-0.8-0.1-1.6,0.4-2.3
		c0.6-0.8,2.3-0.7,3.8-0.6c0.4,0,0.8,0.1,1.1,0.1c0.4,0,0.9,0,1.3,0l-0.9-1.4h-0.4l-1-0.2c-1.7-0.1-3.5-0.2-4.7,0.7
		c-0.1,0.1-0.2,0.1-0.3,0.2c-0.1,0-0.1,0.1-0.2,0.1c-0.6,0.7-0.9,1.6-0.9,2.6v0.1c0,0,0,0,0,0.1c0,0.3,0.1,0.5,0.1,0.8
		c0.4,2.8,1.6,5.4,3.4,7.6c1,1.4,2.4,2.3,4.1,2.8l2.1,0.3c1.9,6.5,6.2,12.1,12,15.7l0.1,0.1h0.1c0.3,0.2,0.5,0.3,0.7,0.5l0.6,0.4
		l0.5,0.3c0.3,0.2,0.5,0.3,0.8,0.5l0,0l0.2,0.1l0.5,0.3l0,0c2.4,1.3,5,2.3,7.7,3c0.4,0.1,0.9,0.2,1.3,0.3c0.5,0.1,0.9,0.1,1.4,0.2
		h0.4c0.3,0,0.5,0,0.8,0h0.7h0.3c0.2,0,0.4,0,0.6-0.1l0,0h0.3c0.1,0,0.2-0.1,0.3-0.1l0,0c0.1,0,0.2,0,0.3-0.1c2-0.6,3.7-2,4.7-3.8
		c3.7-6.1,6.4-10.9,7.7-19.2c0.2-1.9,0.3-3.9,0.5-5.8C248.8,281.2,248.9,277.4,248.8,273.6z"/>
	<path class="st8" d="M230.6,277.6c0,1.3-0.5,2.3-1.1,2.3c-0.6,0-1.1-1-1.1-2.3c0-1.2,0.5-2.3,1.1-2.3
		C230.1,275.3,230.6,276.3,230.6,277.6z"/>
	<path class="st8" d="M243.8,278.4c0,1.3-0.5,2.3-1.1,2.3s-1.1-1-1.1-2.3s0.5-2.3,1.1-2.3S243.8,277.2,243.8,278.4z"/>
	<path class="st8" d="M221.5,270.8c-0.1,0-0.3-0.1-0.4-0.2c-0.3-0.3-0.4-0.8-0.1-1.1c2.2-2.5,5.6-3.6,8.9-3c0.4,0.1,0.7,0.5,0.7,0.9
		c0,0,0,0,0,0c-0.1,0.4-0.5,0.7-0.9,0.7c-2.7-0.5-5.5,0.4-7.3,2.5C222.1,270.8,221.8,270.9,221.5,270.8z"/>
	<path class="st8" d="M246.3,273.7c-0.2,0-0.4-0.2-0.5-0.3c-1.2-2.1-3.6-3.2-6-2.8c-0.4,0.1-0.8-0.2-1-0.6c-0.1-0.4,0.1-0.8,0.5-0.9
		c0,0,0,0,0,0l0,0c3-0.6,6.1,0.8,7.7,3.4c0.3,0.3,0.2,0.8-0.1,1.1c0,0,0,0,0,0l0,0C246.7,273.7,246.5,273.7,246.3,273.7z"/>
	<path class="st8" d="M234.7,291.1c-0.4-0.1-0.7-0.5-0.6-1c0.1-0.4,0.4-0.6,0.8-0.6c0,0,2.1,0.3,2.7-1.1c0.3-0.7,0.1-1.1-0.3-1.9
		c-0.5-1-0.8-2-0.8-3.1c0.1-2.1,0.3-4.3,0.8-6.4c0.1-0.4,0.5-0.7,0.9-0.6c0,0,0,0,0,0l0,0c0.4,0.1,0.7,0.5,0.6,0.9c0,0,0,0,0,0l0,0
		c-0.4,2-0.7,4-0.7,6c0,0.9,0.2,1.7,0.7,2.5c0.6,1,0.7,2.2,0.3,3.3C237.9,291.4,234.8,291.1,234.7,291.1z"/>
	<path class="st8" d="M227.1,296.2c-1.8-0.2-3.5-1.1-4.8-2.5c-0.3-0.3-0.2-0.8,0.1-1.1c0,0,0,0,0,0c0.3-0.3,0.8-0.3,1.1,0
		c0,0,0,0,0,0.1l0,0c1.5,1.4,3.6,2.2,5.6,2c0.4,0,0.8,0.3,0.8,0.7c0,0.4-0.3,0.8-0.7,0.9C228.7,296.4,227.9,296.4,227.1,296.2z"/>
	<path class="st7" d="M269.9,329.1c0,0,11.7,34.1,9.9,85.1l40,17.4l-9.5,7.8l-42.3-9.1"/>
	<path class="st8" d="M234,346.8l-0.7,10.8l6.4,5.1l4.1-0.7l1.3-7.3l-6.1-9.7C239,345.1,241.2,349.7,234,346.8z"/>
	<polygon class="st8" points="239.6,362.7 243,419.5 252.3,427.7 257,415 243,358.5 	"/>
	<path class="st8" d="M224.1,344.3l11.5,6.6v-3.5l-7-6.7C226.7,341.4,225.2,342.7,224.1,344.3z"/>
	<path class="st8" d="M237.3,349.5l1.3-9.1c0,0,4.8-1.6,6.5,0.8l-5.9,11.2L237.3,349.5z"/>
	<path class="st7" d="M229.8,270.5c3.9,0.4,6.7,3.9,6.3,7.8c-0.4,3.9-3.9,6.7-7.8,6.3s-6.7-3.9-6.3-7.8c0,0,0,0,0,0
		C222.4,272.9,225.9,270.1,229.8,270.5C229.8,270.5,229.8,270.5,229.8,270.5z"/>
	<path class="st7" d="M245.7,272.3c3.5,0.4,6,3.8,5.6,7.7c-0.4,3.9-3.6,6.7-7.1,6.4c-3.5-0.4-6-3.8-5.6-7.7S242.3,271.9,245.7,272.3
		z"/>
	<line class="st7" x1="221.6" y1="276.8" x2="203.9" y2="275.7"/>
	<line class="st7" x1="236.3" y1="276.2" x2="239.2" y2="276.5"/>
	<path class="st7" d="M179.2,422.1c-8.1-0.8-15.8,8.7-15.8,8.7"/>
	<path class="st7" d="M161.5,424.1c0,0,10.9-6.1,20.2-1.3"/>
	<path class="st7" d="M279.8,414.2c0,0-6.8,3-8.3,9.1"/>
	<path class="st7" d="M208.2,241.3c4.6-3.7,19.8-3.5,24.3,7.3"/>
	<path class="st13" d="M222.5,432.3l1.6-8.3l13.2-5.3h-11.6l12.1-7.1l-12.8,2.5c0,0-24.8-40-35.9-56.6l0,0c-1.5-2.2-2.7-4-3.6-5.2
		l3.2,12.4l0.5,1.8l0.8,2.9l1.6,6.1l-7.8-9.3l3,10.9L171.6,420l-6,2.3h-0.1l-2.1,0.8l8.2,0.8l-6,4.5l0,0l11.4-2l76.9,17.9l0.8-2.8
		L222.5,432.3z M213.2,427.6c-0.9,1.6-1.5,2.8-1.5,2.8l-31.9-8.5h-0.1l14.9-44.2c0.4,0.7,21.2,38.6,22.5,41.1L213.2,427.6z"/>
	<line class="st7" x1="157.6" y1="415.5" x2="175.4" y2="345.1"/>
	<path class="st7" d="M200.1,449.4l-0.5-0.1"/>
	<path class="st9" d="M283.6,439.8c-4-2.8-8.5-2.6-12.4-2.5c-2.8,0.1-9.2,2.7-15.6,4.3c-0.4,0.1-0.8,0.1-1.2,0.1
		c0,0.6-1.1,5.6-1.6,8.2c0.7,0,1.3-0.1,2-0.2c0.6-0.1,1.1-0.1,1.7,0.1c1.5,0.5,2.9,0.8,4.5,1c2.5,0.4,7.4-0.2,9.1,2
		c1.5,1.7,3.2,3.2,5.1,4.5c1.5,1.1,3.3,2.4,5.2,2.1c1.6-0.2-0.4-1.5-0.9-1.9c-1.4-1.5-2.6-3.1-3.7-4.7c-0.4-0.5-1.7-2.6-2.3-2.7
		c0.6,0.1,1.3,0.2,2,0.3c0.9,0.1,1.8,0.9,2.9,1.8c1,0.8,2,1.6,3.1,2.3c0.5,0.4,6.2,3.6,5.9,1.1c-0.1-0.8-1.4-1.7-1.9-2.2
		c-2.5-2.5-5.3-4.8-8.3-6.7l4.6,1.3c0.8,0.5,1.6,1,2.4,1.6c0.4,0.4,0.9,0.7,1.4,1.1c0.9,0.7,3.2,2,4.3,1.5c1.7-0.8-3.6-6-4.5-6.6
		s-5.6-3.5-5.8-3.7l-1-0.5l-0.2-0.1c2.3,0.9,4.6,2,6.7,3.3c1.7,1.4,3.6,3.7,5.6,2.4C292.5,445.5,287.6,442.6,283.6,439.8z"/>
	<path class="st7" d="M194.5,377.7l-15.3,44.4l75.5,19.4l-2.5,9.1c-17.1,1.2-34.2,0.9-51.2-1l-0.8-0.1"/>
	<polyline class="st7" points="188.2,365.9 217.1,418.8 213.5,427.1 	"/>
</g>
<g id="freepik--Table--inject-284">
	<line class="st7" x1="448.1" y1="459.4" x2="50.2" y2="459.4"/>
</g>
<g id="freepik--Computer--inject-284">
	<rect x="251.1" y="457" class="st9" width="52.3" height="2.4"/>
	<rect x="230.9" y="370.6" class="st9" width="112.8" height="72.7"/>
	<rect x="237.1" y="370.6" class="st16" width="106.6" height="72.7"/>
	<polygon class="st9" points="280,404.4 304.7,404.4 305.6,459.7 280.9,459.7 	"/>
	<rect x="282.3" y="403.4" class="st16" width="24.7" height="56.2"/>
	<polyline class="st7" points="307.5,443.5 307.5,405.1 280.6,405.1 	"/>
	<rect x="154.6" y="455.7" class="st9" width="75.5" height="3.9"/>
	<rect x="174.1" y="455.7" class="st9" width="94.5" height="3.9"/>
</g>
<g id="freepik--Plant--inject-284">
	<path class="st1" d="M240.6,405.7c2.2-5,2.2-10.8,0-15.8c-3.7-8.6-14.4-9.1-14.4-9.1s3.2,3.2,3.3,10.7
		C229.6,398.9,233.7,404.8,240.6,405.7z"/>
	<path class="st1" d="M235.3,410.4c0,0-3.9-9.9-11.8-12.1c-7.9-2.1-14,4.2-18.9,2.5C204.6,400.7,216.1,416.6,235.3,410.4z"/>
	<path class="st1" d="M265.1,400.1c0,0,3.3-15-14.1-17.3c0,0,1.6,1.1,2.7,6.2S255.3,399.5,265.1,400.1z"/>
	<path class="st1" d="M265,424.6c0,0,1.8-13.7,22.1-11.5c0,0-2.7,1.2-4.6,5.7S278.5,427.9,265,424.6z"/>
	<path class="st1" d="M274.3,394.4c0,0,4.3-14.1,19.4-11.2C293.7,383.1,292.1,398.8,274.3,394.4z"/>
	<path class="st10" d="M240.6,405.7c2.2-5,2.2-10.8,0-15.8c-3.7-8.6-14.4-9.1-14.4-9.1s3.2,3.2,3.3,10.7
		C229.6,398.9,233.7,404.8,240.6,405.7z"/>
	<path class="st10" d="M235.3,410.4c0,0-3.9-9.9-11.8-12.1c-7.9-2.1-14,4.2-18.9,2.5C204.6,400.7,216.1,416.6,235.3,410.4z"/>
	<path class="st10" d="M265.1,400.1c0,0,3.3-15-14.1-17.3c0,0,1.6,1.1,2.7,6.2S255.3,399.5,265.1,400.1z"/>
	<path class="st10" d="M265,424.6c0,0,1.8-13.7,22.1-11.5c0,0-2.7,1.2-4.6,5.7S278.5,427.9,265,424.6z"/>
	<path class="st10" d="M274.3,394.4c0,0,4.3-14.1,19.4-11.2C293.7,383.1,292.1,398.8,274.3,394.4z"/>
	<polygon class="st8" points="241.2,435.7 271.4,435.7 267.4,458.8 245.4,458.8 	"/>
	<polyline class="st7" points="258.1,438.4 268.2,404.5 279.4,382.3 	"/>
	<line class="st7" x1="287" y1="388.2" x2="273.7" y2="393.6"/>
	<line class="st7" x1="262" y1="393.6" x2="267.8" y2="405.7"/>
	<line class="st7" x1="272.5" y1="421.1" x2="261.5" y2="427.1"/>
	<line class="st7" x1="236.9" y1="397.1" x2="258.1" y2="445.1"/>
	<line class="st7" x1="244.2" y1="413.7" x2="222" y2="404.2"/>
</g>
</svg>
