<?xml version="1.0" encoding="utf-8"?>
<!-- Generator: Adobe Illustrator 27.0.0, SVG Export Plug-In . SVG Version: 6.00 Build 0)  -->
<svg version="1.1" id="Layer_1" xmlns="http://www.w3.org/2000/svg" xmlns:xlink="http://www.w3.org/1999/xlink" x="0px" y="0px"
	 viewBox="0 0 2500 2500" style="enable-background:new 0 0 2500 2500;" xml:space="preserve">
<style type="text/css">
	.st0{fill:#58C4DC;}
</style>
<g>
	<g transform="translate(0, 0.0009)">
		<path id="react_wordmark_dark__Path" class="st0" d="M1238.8,1045.4c-40.8,0-80.7,12.1-114.7,34.8c-33.9,22.7-60.4,55-76,92.8
			c-15.6,37.8-19.7,79.3-11.7,119.4c8,40.1,27.6,76.9,56.5,105.8c28.9,28.9,65.7,48.6,105.7,56.6c40,8,81.5,3.9,119.3-11.8
			c37.7-15.6,70-42.1,92.6-76.1c22.7-34,34.8-74,34.8-114.8c0-54.8-21.7-107.4-60.5-146.2
			C1346.1,1067.2,1293.6,1045.4,1238.8,1045.4z"/>
		<path id="react_wordmark_dark__Shape_00000034795979377295359480000015574773298650344364_" class="st0" d="M2322.4,1252.1
			c0-163.1-150.9-306.2-391.2-400.4c3.2-21.2,6.1-42.2,8.2-62.8c23.7-234.4-32.7-403.6-158.8-476.5
			c-141.1-81.5-340.3-22.4-541.8,139c-201.5-161.4-400.7-220.6-541.8-139C571,385.3,514.6,554.5,538.3,788.9
			c2.1,20.6,4.9,41.6,8.2,62.9c-20,7.7-39.7,15.8-58.6,24.3c-214.5,96.5-332.7,230.2-332.7,376c0,163.1,150.9,306.2,391.2,400.4
			c-3.3,21.2-6.1,42.2-8.2,62.8c-23.7,234.4,32.7,403.6,158.8,476.5c43.3,24.6,92.5,37.2,142.3,36.5c119.4,0,258.9-62.9,399.5-175.5
			c140.5,112.5,280.1,175.5,399.6,175.5c49.8,0.7,98.9-11.9,142.3-36.5c126.1-72.9,182.5-242.1,158.8-476.5
			c-2.1-20.6-5-41.6-8.2-62.8c240.3-94,391.2-237.3,391.2-400.4H2322.4z M1637.5,379.3c32-0.8,63.7,7,91.7,22.5
			c87.5,50.6,126.8,187.9,107.7,376.6c-1.3,12.9-2.8,25.9-4.7,39c-99.9-30.1-202.2-51.6-305.8-64.2
			c-62.8-83.6-132.6-161.6-208.7-233.3C1437.3,427.4,1549.5,379.3,1637.5,379.3L1637.5,379.3z M1596.4,1458.8
			c-38.7,67.2-80.8,132.4-126.1,195.2c-76.9,7.9-154.2,11.8-231.5,11.8c-77.3,0.1-154.5-3.9-231.4-11.8
			c-45.3-62.9-87.2-128-125.8-195.2c-38.7-67-73.8-136-105.3-206.7c31.5-70.7,66.6-139.7,105.3-206.7
			c38.5-66.9,80.3-131.9,125.4-194.5c77-8.1,154.4-12.1,231.9-12.1c77.3,0,154.5,3.9,231.4,11.8c45.2,62.8,87.2,127.8,125.8,194.8
			c38.6,67,73.8,136,105.3,206.7c-31.5,70.7-66.6,139.7-105.3,206.7H1596.4z M1754,1382.3c24.3,66.3,44.2,134,59.6,202.9
			c-67,20.9-135.4,37.4-204.6,49.4c26.3-39.7,51.8-81,76.5-124c24.4-42.4,47.2-85.2,68.8-128L1754,1382.3z M1238.9,1917.7
			c-51.7-47.8-100.2-98.9-145.3-153.1c47.6,2.9,96.1,4.6,145.3,4.6c49.2,0,98-1.7,145.6-4.6
			C1339.4,1818.7,1290.7,1869.8,1238.9,1917.7z M868.7,1634.4c-69.2-11.9-137.6-28.3-204.7-49.2c15.4-68.7,35.2-136.4,59.4-202.6
			c21.3,42.8,44,85.6,68.8,128c24.8,42.4,50.4,84.2,76.5,124V1634.4z M723.4,1121.6c-24.1-65.9-43.9-133.3-59.3-201.8
			c66.9-20.9,135.1-37.5,204.1-49.5c-26.1,39.6-51.8,80.6-76.5,123.4c-24.7,42.8-47.2,85.1-68.8,127.9H723.4z M1238.4,586.5
			c51.9,47.8,100.5,98.9,145.6,153.1c-47.6-2.9-96.1-4.6-145.6-4.6c-49.1,0-97.6,1.5-145.3,4.6
			C1138.2,685.5,1186.7,634.3,1238.4,586.5z M1685.3,993.7c-24.8-43-50.4-84.3-76.8-124c69.4,12,137.9,28.5,205.1,49.5
			c-15.4,68.7-35.3,136.4-59.4,202.6C1733,1078.9,1710.1,1036.1,1685.3,993.7L1685.3,993.7z M640.9,778.5
			c-19.3-188.6,20.2-326,107.7-376.6c28.1-15.5,59.7-23.3,91.7-22.5c88,0,200.2,48.1,319.7,140.6c-76.1,71.7-146,149.8-208.9,233.4
			c-103.6,12.7-205.9,34.1-305.8,64c-1.8-13.1-3.4-26-4.6-38.9H640.9z M258.4,1252.1c0-101.2,99.4-203.9,271.8-281.7
			c11.8-5.1,23.8-10.2,36-15.3c24,101.6,56.7,201,97.5,297c-40.9,96.3-73.5,195.8-97.6,297.7
			C371.4,1469.8,258.4,1358.9,258.4,1252.1z M748.6,2102.3c-87.5-50.6-127-188-107.7-376.6c1.2-12.9,2.8-25.8,4.6-39
			c99.9,30.1,202.2,51.6,305.8,64.2c62.8,83.6,132.6,161.7,208.7,233.4c-166.6,128.9-318.8,171.3-411.3,117.9H748.6z M1836.9,1725.7
			c19.1,188.7-20.2,326-107.7,376.6c-92.4,53.6-244.7,11-411.2-117.9c76.1-71.7,145.9-149.8,208.6-233.4
			c103.6-12.6,205.9-34.1,305.8-64.2c1.8,13.2,3.4,26.1,4.7,39H1836.9z M1911.9,1549.6c-24.1-101.8-56.8-201.3-97.6-297.5
			c40.9-96.3,73.5-195.9,97.6-297.7c194.4,80,307.7,190.9,307.7,297.7c0,106.8-112.9,217.7-307.7,297.7"/>
	</g>
	<path id="react_wordmark_dark__Path_00000160904808013031295720000016400647945194413478_" class="st0" d="M1238.8,1469.3
		c113.6,0,205.8-95.2,205.8-212.6s-92.1-212.6-205.8-212.6c-113.6,0-205.7,95.2-205.7,212.6S1125.2,1469.3,1238.8,1469.3z"/>
	<path id="react_wordmark_dark__Shape_00000098181851675473361180000007668921049070577055_" class="st0" d="M2322.5,1249.9
		c0-162.6-150.9-305.3-391.1-398.9c38.8-254.8-9.5-456.8-150.7-538.1c-126-72.7-300.6-37.1-491.5,100.2
		c-16.9,12.1-33.7,25-50.4,38.4c-16.6-13.4-33.4-26.3-50.2-38.4C997.6,275.8,823.1,240.1,697,312.9C556,394.2,507.7,596,546.6,850.6
		c-240.5,93.8-391.4,236.6-391.4,399.3c0,162.6,150.9,305.3,391.1,398.9c-38.8,254.8,9.5,456.8,150.7,538.1
		c42.7,24.6,91.1,36.8,143.7,36.8c102.6,0,221.6-46.4,347.8-137.1c16.9-12.1,33.7-25,50.4-38.4c16.6,13.4,33.4,26.3,50.2,38.4
		c126.2,90.8,245.2,137.1,347.8,137.1c52.6,0,101-12.2,143.7-36.8c126-72.7,182.4-241.4,158.8-475.2c-2.1-20.6-4.8-41.5-8.1-62.7
		C2171.7,1555.3,2322.5,1412.6,2322.5,1249.9z M1349.5,496.7c107.3-77.2,207.2-117.4,287.4-117.4c34.7,0,65.7,7.5,92.1,22.7
		c92.4,53.3,131.8,206.2,103.6,414.7c-92.9-28.5-195.7-50.2-306.3-64.2c-66.2-87-136.4-165.4-208.2-232.4
		C1328.6,512.2,1339.1,504.2,1349.5,496.7z M748.6,402c26.4-15.2,57.4-22.7,92.1-22.7c80.2,0,180.1,40.1,287.4,117.4
		c10.4,7.5,20.9,15.3,31.3,23.4c-71.9,67-141.9,145.3-208.1,232.3c-110.4,13.9-213.4,35.8-306.3,64.2
		C616.9,608.3,656.3,455.4,748.6,402z M258.4,1249.9c0-106.5,113-217.2,307.9-296.9c21.8,94.4,54.3,194.3,97.3,296.7
		c-43.2,102.5-75.7,202.5-97.5,297.1C371.4,1467,258.4,1356.4,258.4,1249.9z M1128.2,2003.1c-153.8,110.5-292.1,145-379.5,94.7
		c-92.4-53.3-131.8-206.2-103.6-414.7c92.9,28.5,195.7,50.2,306.3,64.2c66.2,87,136.4,165.4,208.2,232.4
		C1149.1,1987.8,1138.6,1995.6,1128.2,2003.1z M1238.8,1912.5c-129-118-253-275.7-357.6-456.5c-28-48.3-84.6-169.7-107.6-216.7
		c-18.3,43.8-36.4,84-50.6,126.7c11.6,21.5,56.4,119.9,68.8,141.4c24.5,42.4,50.2,83.6,76.6,123.5c-74.2-13-142.8-29.8-205.2-49.5
		c35.5-160,106.3-344.5,218-537.7c27.5-47.5,87.2-153.7,117.1-197.7c-47.2,6.1-85.1,4.1-129.5,13.2c-12.9,20.9-64.6,111.6-77,133.1
		c-24.8,42.8-47.5,85.5-68.8,128c-25.8-70.7-45.5-138.5-59.6-202.4c156.5-49.3,351.9-80.4,575.3-80.4c55.9,0,172.5-1.1,224.6,2.6
		c-28.8-37.7-53.4-71.9-83.5-105.7c-24.4-0.8-116.2,0-141.1,0c-49.3,0-97.5,1.7-144.9,4.5c47-55.8,95.6-106.8,144.9-151.9
		c128.9,118,253,275.7,357.6,456.5c27.5,47.5,86.8,158.2,110.2,206.1c18.4-43.8,35.9-83.7,50.2-126.8
		c-11.6-21.6-58.6-109.5-71-130.9c-24.5-42.4-50.2-83.6-76.6-123.4c74.2,13,142.8,29.8,205.2,49.5c-35.5,160-106.3,344.5-218,537.7
		c-27.5,47.5-105.7,156.4-135.6,200.4c47.2-6.1,98.3-15.1,142.7-24.3c12.9-20.9,69.9-103.3,82.3-124.8c24.6-42.5,47.3-85,68.4-127.4
		c25,68.8,44.9,136.4,59.3,201.9c-156.3,49.3-351.5,80.3-574.7,80.3c-55.9,0-185.7-7.3-237.8-11.1c28.8,37.7,59.8,77,89.8,110.8
		c24.4,0.8,123.1,3.3,148,3.3c49.3,0,97.5-1.7,144.9-4.5C1336.6,1816.4,1288.1,1867.5,1238.8,1912.5z M1729.1,2097.8
		c-87.5,50.5-225.9,16-379.5-94.7c-10.5-7.5-20.9-15.3-31.3-23.4c71.9-67,141.9-145.3,208.1-232.3c110.3-13.9,213-35.7,305.7-64
		c1.8,13,3.6,26,4.9,38.8C1855.9,1910.5,1816.5,2047.3,1729.1,2097.8z M1911.6,1546.8c-22.2-95.8-55.1-195.7-97.5-296.5
		c43.2-102.5,75.7-202.5,97.5-297.1c194.7,79.7,307.7,190.1,307.7,296.7C2219.3,1356.4,2106.4,1467,1911.6,1546.8z"/>
</g>
</svg>
